<?xml version="1.0" encoding="utf-8"?>
<!-- Generator: Adobe Illustrator 28.0.0, SVG Export Plug-In . SVG Version: 6.00 Build 0)  -->
<svg version="1.1" id="Layer_1" xmlns="http://www.w3.org/2000/svg" xmlns:xlink="http://www.w3.org/1999/xlink" x="0px" y="0px"
	 viewBox="0 0 24 24" style="enable-background:new 0 0 24 24;" xml:space="preserve">
<style type="text/css">
	.st0{fill-rule:evenodd;clip-rule:evenodd;}
</style>
<path class="st0" d="M3.5,3.5C2,4.9,2,7.3,2,12s0,7.1,1.5,8.5C4.9,22,7.3,22,12,22s7.1,0,8.5-1.5C22,19.1,22,16.7,22,12
	s0-7.1-1.5-8.5C19.1,2,16.7,2,12,2S4.9,2,3.5,3.5z M7.2,12c0-2.6,2.1-4.8,4.8-4.8c2.6,0,4.8,2.1,4.8,4.8c0,2.6-2.1,4.8-4.8,4.8
	C9.4,16.8,7.2,14.6,7.2,12z M8.8,12c0-1.8,1.5-3.2,3.2-3.2s3.2,1.5,3.2,3.2s-1.5,3.2-3.2,3.2S8.8,13.8,8.8,12z"/>
</svg>
