<?xml version="1.0" encoding="utf-8"?>
<!-- Generator: Adobe Illustrator 28.0.0, SVG Export Plug-In . SVG Version: 6.00 Build 0)  -->
<svg version="1.1" id="Layer_1" xmlns="http://www.w3.org/2000/svg" xmlns:xlink="http://www.w3.org/1999/xlink" x="0px" y="0px"
	 viewBox="0 0 24 24" style="enable-background:new 0 0 24 24;" xml:space="preserve">
<style type="text/css">
	.st0{fill-rule:evenodd;clip-rule:evenodd;}
</style>
<path class="st0" d="M2,6.3c0-1.2,0.9-2.1,2.1-2.1h15.7c1.2,0,2.1,0.9,2.1,2.1v11.4c0,1.2-0.9,2.1-2.1,2.1H4.1
	c-1.2,0-2.1-0.9-2.1-2.1V6.3z M3.4,15.9v1.9c0,0.4,0.3,0.7,0.7,0.7h15.7c0.4,0,0.7-0.3,0.7-0.7v-1.9L18,13.3c-0.6-0.6-1.4-0.6-2,0
	l-0.9,0.9l0.9,0.9c0.3,0.3,0.3,0.7,0,1c-0.3,0.3-0.7,0.3-1,0l0,0l-4.9-4.9c-0.6-0.6-1.4-0.6-2,0L3.4,15.9L3.4,15.9z M13.1,8.4
	c0-0.6,0.5-1.1,1.1-1.1c0.6,0,1.1,0.5,1.1,1.1s-0.5,1.1-1.1,1.1C13.6,9.5,13.1,9,13.1,8.4z"/>
</svg>
