<?xml version="1.0" encoding="utf-8"?>
<!-- Generator: Adobe Illustrator 28.0.0, SVG Export Plug-In . SVG Version: 6.00 Build 0)  -->
<svg version="1.1" id="Layer_1" xmlns="http://www.w3.org/2000/svg" xmlns:xlink="http://www.w3.org/1999/xlink" x="0px" y="0px"
	 viewBox="0 0 36 36" style="enable-background:new 0 0 36 36;" xml:space="preserve">
<path d="M5.1,15.2c-0.7,0-1.1-0.4-1.1-1.1v-3.2C4,7.1,7.1,4,10.8,4h3.2c0.7,0,1.1,0.4,1.1,1.1s-0.4,1-1.1,1h-3.2
	c-2.7,0-4.8,2.2-4.8,4.8v3.2C6.1,14.8,5.7,15.2,5.1,15.2z M30.9,15.2c-0.6,0-1.1-0.4-1.1-1.1v-3.2c0-2.7-2.1-4.8-4.8-4.8h-3.2
	c-0.6,0-1.1-0.4-1.1-1.1s0.7-1,1.4-1h3.2c3.8,0,6.9,3.1,6.9,6.9v3.2C32,14.8,31.6,15.2,30.9,15.2z M25.1,32h-2
	c-0.6,0-1.1-0.4-1.1-1.1c0-0.6,0.4-1.1,1.1-1.1h2c2.7,0,4.8-2.1,4.8-4.8v-2c0-0.6,0.4-1.1,1.1-1.1c0.6,0,1.1,0.4,1.1,1.1v2
	C32,28.9,28.9,32,25.1,32z M14.1,32h-3.2C7.1,32,4,28.9,4,25.1v-3.2c0-0.7,0.4-1.1,1.1-1.1s1.1,0.4,1.1,1.1v3.2
	c0,2.7,2.1,4.8,4.8,4.8h3.2c0.6,0,1.1,0.4,1.1,1.1C15.3,31.7,14.8,32,14.1,32z M27.1,16.9h-2H10.8H8.7c-0.6,0-1.1,0.4-1.1,1.1
	s0.4,1.1,1.1,1.1h2H25h2c0.6,0,1.1-0.6,1.1-1.1S27.6,16.9,27.1,16.9z M10.8,20.7v0.4c0,2.4,1.8,4.2,4.2,4.2h5.9
	c2.4,0,4.2-1.8,4.2-4.2v-0.4c0-0.1-0.1-0.3-0.3-0.3H11.1C11,20.4,10.8,20.5,10.8,20.7z M10.8,15.3v-0.7c0-2.4,1.8-4.2,4.2-4.2h5.9
	c2.4,0,4.2,1.8,4.2,4.2v0.4c0,0.1-0.1,0.3-0.3,0.3H11.1C11,15.6,10.8,15.5,10.8,15.3z"/>
</svg>
